<svg width="55" height="70" viewBox="0 0 55 70" fill="none" xmlns="http://www.w3.org/2000/svg">
<path d="M53.1008 29.367C52.7253 29.2918 52.4249 29.1416 52.1996 28.9163C51.8991 28.691 51.6738 28.3906 51.5236 28.015C51.2983 27.6395 51.2232 27.1888 51.2232 26.588V18.6266C51.2232 17.7253 51.073 16.8991 50.7725 16.2232C50.4721 15.5472 50.0966 15.0215 49.6459 14.5708C49.1202 14.1202 48.5944 13.8197 47.9935 13.5944C47.3927 13.3691 46.7167 13.294 46.0408 13.294H28.9163V11.6416C31.2446 10.8155 32.897 8.56223 32.897 6.00858C32.897 2.70386 30.1931 0 26.8884 0C23.5837 0 20.8798 2.70386 20.8798 6.00858C20.8798 8.63734 22.5322 10.8155 24.8605 11.7167V13.3691H7.96137C7.2854 13.3691 6.60944 13.4442 6.00858 13.6695C5.40772 13.8949 4.80687 14.1953 4.35622 14.6459C3.83047 15.0966 3.45493 15.6223 3.22961 16.2983C2.92918 16.9742 2.77897 17.7253 2.77897 18.7017V26.7382C2.77897 27.3391 2.70386 27.7897 2.47854 28.1652C2.25322 28.5408 2.02789 28.8412 1.80257 29.0665C1.50214 29.2918 1.20172 29.4421 0.901288 29.5172C0.375537 29.6674 0 30.118 0 30.6438V32.221C0 32.7468 0.375537 33.1974 0.901288 33.3476C1.27682 33.4227 1.57725 33.573 1.80257 33.7983C2.103 34.0236 2.32832 34.324 2.47854 34.7747C2.70386 35.1502 2.77897 35.676 2.77897 36.3519V44.6137C2.77897 45.515 2.92918 46.3412 3.22961 47.0172C3.53004 47.6931 3.90558 48.2189 4.35622 48.6695C4.88197 49.1202 5.40772 49.4206 6.00858 49.6459C6.60944 49.8713 7.2854 49.9464 7.96137 49.9464H40.4828C41.2339 49.9464 41.9099 50.0966 42.1352 50.6223C42.3605 51.1481 42.2854 51.7489 42.2854 52.3498V64.2919C42.2854 64.8927 42.2854 65.3433 42.0601 65.8691C41.8347 66.3948 41.309 66.6953 40.4828 66.6953H14.1202C13.3691 66.6953 12.6931 66.3948 12.5429 65.8691C12.3176 65.3433 12.3927 64.8176 12.3927 64.2167V60.6867C12.3927 60.6867 12.4678 58.4335 10.2897 58.4335C8.18669 58.4335 8.2618 60.5365 8.2618 60.6867V64.6674C8.2618 65.5687 8.41201 66.3949 8.71244 67.0708C9.01287 67.7468 9.38841 68.2725 9.83905 68.7232C10.3648 69.1738 10.8906 69.4743 11.4914 69.6996C12.0923 69.9249 12.7682 70 13.4442 70H41.309C41.985 70 42.6609 69.9249 43.2618 69.6996C43.8627 69.4743 44.4635 69.1738 44.9142 68.7232C45.4399 68.2725 45.8154 67.7468 46.0408 67.0708C46.3412 66.3949 46.4914 65.6438 46.4914 64.6674V51.7489C46.4914 50.8476 46.3412 50.0215 46.0408 49.3455C45.7403 48.6695 45.3648 48.1438 44.9142 47.6931C44.3884 47.2425 43.8627 46.9421 43.2618 46.7167C42.6609 46.4914 41.985 46.4163 41.309 46.4163H8.78755C8.03648 46.4163 7.2854 45.8906 7.06008 45.4399C6.83476 44.9142 6.98498 41.0086 6.98498 40.4077V36.0515C6.98498 35.0751 6.83476 34.324 6.53433 33.7232C6.2339 33.1223 5.85837 32.6717 5.48283 32.2961C5.10729 31.9206 4.65665 31.6953 4.20601 31.5451C3.75536 31.3948 3.37983 31.3197 3.00429 31.2446V31.1695C3.30472 31.1695 3.75536 31.0193 4.20601 30.8691C4.65665 30.6438 5.10729 30.4185 5.48283 30.0429C5.85837 29.6674 6.2339 29.2167 6.53433 28.691C6.83476 28.1652 6.98498 27.4893 6.98498 26.6631V19.0773C6.98498 18.4764 6.98498 17.8755 7.13519 17.3498C7.36051 16.824 7.88626 16.5987 8.78755 16.6738H45.3648C46.1159 16.6738 46.7167 16.8991 46.942 17.4249C47.1674 17.9506 47.1674 18.5515 47.1674 19.1524V26.8133C47.1674 27.5644 47.3176 28.2403 47.618 28.8412C47.9184 29.367 48.294 29.8176 48.6695 30.1931C49.045 30.5687 49.4957 30.794 49.9463 31.0193C50.397 31.2446 50.7725 31.3197 51.1481 31.3197V31.3948C50.8476 31.3948 50.397 31.5451 49.9463 31.6953C49.4957 31.8455 49.045 32.0708 48.6695 32.4464C48.294 32.8219 47.9184 33.2725 47.618 33.8734C47.3176 34.4743 47.1674 35.2253 47.1674 36.2017V41.5343C47.1674 41.5343 47.1674 43.4871 49.2704 43.4871C51.4485 43.4871 51.3734 41.5343 51.3734 41.5343V36.3519C51.3734 35.676 51.4485 35.1502 51.6738 34.7747C51.8991 34.3991 52.1244 34.0236 52.3498 33.7983C52.6502 33.573 52.9506 33.4227 53.251 33.3476C53.7768 33.1974 54.1523 32.7468 54.1523 32.221V30.6438C54.0021 29.9678 53.6266 29.5172 53.1008 29.367ZM26.8884 3.90558C27.9399 3.90558 28.8412 4.80687 28.8412 5.85837C28.8412 6.90987 27.9399 7.81116 26.8884 7.81116C25.8369 7.81116 24.9356 6.90987 24.9356 5.85837C24.9356 4.80687 25.8369 3.90558 26.8884 3.90558Z" fill="#149CF4"/>
<path d="M31.8455 28.0901C31.8455 30.0429 33.4227 31.6953 35.4506 31.6953C37.4034 31.6953 39.0558 30.118 39.0558 28.0901C39.0558 26.1373 37.4785 24.485 35.4506 24.485C33.4227 24.485 31.8455 26.0622 31.8455 28.0901Z" fill="#149CF4"/>
<path d="M14.8712 28.0901C14.8712 30.0429 16.4485 31.6953 18.4764 31.6953C20.4292 31.6953 22.0815 30.118 22.0815 28.0901C22.0815 26.1373 20.5043 24.485 18.4764 24.485C16.5236 24.5601 14.8712 26.1373 14.8712 28.0901Z" fill="#149CF4"/>
<script xmlns=""/></svg>