<svg width="200" height="200" viewBox="0 0 200 200" fill="none" xmlns="http://www.w3.org/2000/svg">
<path d="M60.1324 128.904L120.533 172.826C122.882 169.405 125.062 165.812 127.062 162.071L57.5118 111.495C58.0198 117.409 58.9009 123.228 60.1324 128.904Z" fill="#3FAA39"/>
<path d="M108.116 34.6281L118.797 42.3954L126.793 36.5806C124.772 32.8431 122.573 29.2537 120.202 25.8385L108.116 34.6281Z" fill="#FFCF08"/>
<path d="M79.9985 24.5153C77.586 27.8829 75.3422 31.4282 73.2755 35.1245L101.036 55.3116L111.692 47.5627L79.9985 24.5153Z" fill="#FFCF08"/>
<path d="M99.6485 105.962L110.3 98.2168L61.909 63.0256C60.7092 67.3787 59.7172 71.8323 58.948 76.3649L99.6485 105.962Z" fill="#FFCF08"/>
<path d="M101.114 81.2018L111.77 73.4528L69.4119 42.6502C67.6012 46.5072 65.9722 50.4979 64.5368 54.6018L101.114 81.2018Z" fill="#FFCF08"/>
<path d="M108.142 60.4791L118.876 68.2851L135.319 56.3286C133.927 52.1587 132.337 48.1006 130.559 44.1777L108.142 60.4791Z" fill="#FFCF08"/>
<path d="M108.221 86.3698L117.406 93.0493L140.323 76.3851C139.66 72.4694 138.829 68.6129 137.843 64.8295L108.221 86.3698Z" fill="#FFCF08"/>
<path d="M106.756 111.13L117.416 118.882L142.261 100.814C142.265 100.401 142.27 99.9869 142.27 99.5734C142.27 94.9393 142.036 90.3416 141.586 85.8031L106.756 111.13Z" fill="#3FAA39"/>
<path d="M124.52 124.049L137.968 133.828C139.819 126.621 141.097 119.149 141.752 111.519L124.52 124.049Z" fill="#3FAA39"/>
<path d="M57.6863 85.7817C57.2336 90.3283 57.0001 94.9318 57.0001 99.5731C57.0001 99.9803 57.0044 100.386 57.0079 100.792L130.796 154.45C132.544 150.541 134.106 146.499 135.475 142.35L57.6863 85.7817Z" fill="#3FAA39"/>
<path d="M99.6342 4C94.3859 8.03339 89.5372 12.7092 85.1365 17.9162L101.01 29.4601L115.17 19.1638C110.497 13.454 105.299 8.35349 99.6342 4Z" fill="#FFCF08"/>
<path d="M99.6334 195.146C105.448 190.677 110.771 185.423 115.539 179.53L63.5981 141.759C70.6946 163.631 83.2083 182.522 99.6334 195.146Z" fill="#3FAA39"/>
</svg>
